<svg xmlns="http://www.w3.org/2000/svg" width="492.17" height="511.99" viewBox="0 0 492.17 511.99">
	<style type="text/css">
		.st0{fill:#ffffff;}
	</style>
	<path class="st0" d="M308.15,6.15C304.21,2.21 298.86,0 293.29,0C287.71,0 282.37,2.21 278.42,6.15L35.88,248.7C31.93,252.64 29.72,257.99 29.72,263.56C29.72,269.14 31.93,274.48 35.88,278.42L59.61,302.16L268.35,238.63L331.88,29.89Z"/>
	<path class="st0" d="M486.02,184.02L365.58,63.58L305.31,261.6C305.29,261.67 305.26,261.74 305.24,261.81C305.17,262.03 305.09,262.25 305.01,262.48C304.93,262.7 304.85,262.93 304.76,263.15C304.69,263.32 304.62,263.5 304.55,263.67C304.44,263.94 304.32,264.21 304.19,264.47C304.13,264.6 304.07,264.73 304.01,264.85C303.86,265.15 303.7,265.45 303.53,265.75C303.48,265.84 303.43,265.93 303.38,266.02C303.2,266.34 303,266.66 302.8,266.97C302.76,267.03 302.71,267.1 302.67,267.16C302.45,267.49 302.22,267.82 301.98,268.13C301.95,268.18 301.91,268.23 301.88,268.28C301.62,268.61 301.35,268.94 301.07,269.26C301.05,269.29 301.03,269.31 301.01,269.34C300.71,269.68 300.4,270.01 300.08,270.33C300.08,270.33 300.07,270.34 300.07,270.34L300.06,270.36C299.74,270.67 299.41,270.98 299.06,271.28C299.04,271.31 299.01,271.33 298.98,271.35C298.67,271.62 298.34,271.89 298,272.15C297.95,272.19 297.9,272.22 297.85,272.26C297.54,272.5 297.22,272.73 296.89,272.94C296.83,272.99 296.75,273.03 296.69,273.08C296.38,273.28 296.07,273.47 295.75,273.66C295.66,273.71 295.56,273.76 295.46,273.82C295.18,273.98 294.88,274.13 294.59,274.28C294.45,274.35 294.32,274.41 294.19,274.48C293.93,274.6 293.67,274.71 293.41,274.82C293.23,274.9 293.05,274.98 292.87,275.05C292.65,275.13 292.43,275.21 292.22,275.29C291.99,275.37 291.76,275.45 291.53,275.52C291.46,275.54 291.39,275.57 291.32,275.59L93.3,335.85L213.74,456.29C221.95,464.5 235.26,464.5 243.47,456.29L486.01,213.75C494.22,205.54 494.22,192.23 486.02,184.02"/>
	<path class="st0" d="M80.22,382.22L16.06,446.38C7.85,454.59 7.85,467.9 16.06,476.11C24.27,484.32 37.58,484.32 45.79,476.11L109.95,411.95Z"/>
	<path class="st0" d="M20.76,322.77L6.15,337.38C-2.05,345.59 -2.05,358.9 6.15,367.11C14.36,375.32 27.67,375.32 35.88,367.11L50.49,352.49Z"/>
	<path class="st0" d="M139.67,441.68L105.24,476.11C97.04,484.32 97.03,497.63 105.24,505.84C113.45,514.05 126.76,514.04 134.97,505.84L169.4,471.41Z"/>
</svg>