<svg width="22" height="22" xmlns="http://www.w3.org/2000/svg">

 <g>
  <title>background</title>
  <rect fill="none" id="canvas_background" height="402" width="582" y="-1" x="-1"/>
 </g>
 <g>
  <title>Layer 1</title>
  <path id="svg_1" d="m16.656799,1.10049c0,0 4.242682,4.24265 4.242682,4.24265c0,0 -15.556341,15.55632 -15.556341,15.55632c0,0 -4.24268,-4.242649 -4.24268,-4.242649c0,0 15.556339,-15.556321 15.556339,-15.556321zm-11.313659,0c0,0 15.556341,15.556321 15.556341,15.556321c0,0 -4.242682,4.242649 -4.242682,4.242649c0,0 -15.556339,-15.55632 -15.556339,-15.55632c0,0 4.24268,-4.24265 4.24268,-4.24265z" fill="#21b8c6" fill-rule="evenodd"/>
  <rect transform="rotate(45, 11.0312, 10.9969)" id="svg_4" height="6.139287" width="6.119681" y="7.927231" x="7.971409" stroke-width="0" stroke="#000" fill="#21b8c6"/>
 </g>
</svg>